<?xml version="1.0" encoding="utf-8"?>
<svg id="master-artboard" viewBox="0 0 1057.35205078125 199.5442657470703" version="1.1" xmlns="http://www.w3.org/2000/svg" x="0px" y="0px" style="enable-background:new 0 0 1400 980;" width="1057.35205078125px" height="199.5442657470703px"><rect id="ee-background" x="0" y="0" width="1057.35205078125" height="199.5442657470703" style="fill: white; fill-opacity: 0; pointer-events: none;"/><defs><clipPath id="_clipPath_4L0k73jVwMlgikBvUTyd37CB1In1RapE"><path d="M 0 0 H 1260 V 1080 H 0 V 0 Z"/></clipPath></defs><g transform="matrix(0.9074075222015381, 0, 0, 0.9074075222015381, -30.957929611206055, -388.3289451599121)"><g clip-path="url(#_clipPath_4L0k73jVwMlgikBvUTyd37CB1In1RapE)"><g><g><g><g><g><path d=" M 83.249 572.534 C 79.836 572.538 76.702 570.651 75.107 567.633 C 55.954 531.414 62.651 486.941 91.621 457.968 C 120.594 428.997 165.067 422.301 201.286 441.454 C 204.238 442.965 206.147 445.948 206.284 449.262 C 206.42 452.575 204.762 455.705 201.945 457.453 C 199.128 459.202 195.588 459.299 192.679 457.707 C 163.597 442.329 127.887 447.707 104.624 470.97 C 81.36 494.233 75.982 529.944 91.36 559.026 C 93.722 563.506 92.017 569.053 87.545 571.433 C 86.223 572.141 84.749 572.518 83.249 572.534 Z " fill="rgb(255,255,255)"/><path d=" M 157.784 617.416 C 142.51 617.404 127.471 613.644 113.988 606.467 C 109.534 604.071 107.848 598.529 110.213 594.059 C 112.579 589.588 118.108 587.864 122.595 590.198 C 151.674 605.594 187.394 600.223 210.661 576.96 C 233.929 553.695 239.305 517.977 223.914 488.895 C 222.349 485.986 222.463 482.462 224.212 479.66 C 225.962 476.859 229.079 475.209 232.379 475.339 C 235.68 475.469 238.658 477.358 240.182 480.288 C 255.446 509.223 254.478 544.032 237.628 572.073 C 220.778 600.114 190.499 617.31 157.784 617.416 L 157.784 617.416 Z " fill="rgb(255,255,255)"/><path d=" M 110.638 554.606 C 108.198 554.61 105.958 553.26 104.822 551.101 C 92.666 528.139 96.906 499.934 115.278 481.563 C 133.65 463.191 161.854 458.951 184.816 471.107 C 187.969 472.847 189.139 476.797 187.442 479.974 C 185.746 483.15 181.812 484.375 178.613 482.723 C 160.756 473.272 138.824 476.569 124.536 490.853 C 110.248 505.138 106.945 527.069 116.392 544.928 C 117.211 546.466 117.384 548.266 116.871 549.931 C 116.359 551.596 115.204 552.989 113.662 553.799 C 112.735 554.312 111.697 554.589 110.638 554.606 L 110.638 554.606 Z " fill="rgb(255,255,255)"/><path d=" M 158.544 645.549 C 115.401 645.4 75.473 622.716 53.255 585.733 C 31.037 548.751 29.761 502.846 49.89 464.686 C 50.979 462.576 53.12 461.216 55.493 461.127 C 57.866 461.037 60.103 462.232 61.348 464.254 C 62.593 466.275 62.654 468.811 61.506 470.89 C 38.933 513.554 46.819 565.952 80.949 600.082 C 115.08 634.214 167.477 642.098 210.142 619.525 C 213.342 617.873 217.275 619.098 218.971 622.275 C 220.668 625.451 219.498 629.401 216.345 631.141 C 198.544 640.592 178.699 645.539 158.544 645.549 L 158.544 645.549 Z " fill="rgb(255,255,255)"/></g><path d=" M 316.645 505.568 C 327.831 494.557 342.983 488.517 358.677 488.814 C 374.342 488.436 389.479 494.491 400.562 505.568 C 411.784 516.285 418.018 531.204 417.757 546.719 C 418.121 562.326 411.813 577.348 400.415 588.016 C 389.099 599.039 374.843 604.55 357.942 604.55 C 343.642 604.79 329.762 599.71 318.996 590.294 C 305.916 578.978 299.303 564.281 299.303 545.91 C 299.058 530.604 305.369 515.922 316.645 505.568 L 316.645 505.568 Z  M 332.223 573.76 C 339.011 581.046 348.574 585.106 358.53 584.93 C 368.394 585.074 377.854 581.012 384.543 573.76 C 391.631 566.559 395.547 556.823 395.418 546.719 C 395.629 536.6 391.701 526.833 384.543 519.677 C 377.741 512.543 368.314 508.506 358.456 508.506 C 348.599 508.506 339.172 512.543 332.37 519.677 C 325.317 526.722 321.398 536.31 321.494 546.278 C 321.253 556.504 325.117 566.402 332.223 573.76 L 332.223 573.76 Z  M 482.716 564.649 L 482.716 598.451 C 482.716 600.48 481.071 602.125 479.042 602.125 L 464.786 602.125 C 462.757 602.125 461.112 600.48 461.112 598.451 L 461.112 494.987 C 461.112 492.957 462.757 491.313 464.786 491.313 L 493.426 491.313 C 499.839 491.128 506.239 491.971 512.385 493.811 C 517.15 495.437 521.441 498.214 524.877 501.894 C 531.01 508.572 534.304 517.374 534.062 526.437 C 534.343 534.586 531.799 542.582 526.861 549.07 C 520.688 557.006 510.695 560.974 496.733 560.974 L 486.445 560.974 C 485.461 560.96 484.513 561.34 483.812 562.031 C 483.111 562.721 482.716 563.664 482.716 564.649 L 482.716 564.649 Z  M 482.716 538.636 C 482.716 540.665 484.361 542.31 486.39 542.31 L 491.589 542.31 C 505.06 542.31 511.797 537.019 511.797 526.437 C 511.797 515.121 505.037 510.124 490.193 510.124 L 486.372 510.124 C 484.343 510.124 482.698 511.769 482.698 513.798 L 482.716 538.636 L 482.716 538.636 Z  M 631.207 510.124 L 598.874 510.124 C 596.845 510.124 595.2 511.769 595.2 513.798 L 595.2 530.993 C 595.2 533.022 596.845 534.667 598.874 534.667 L 629.737 534.667 C 631.766 534.667 633.411 536.312 633.411 538.342 L 633.411 549.658 C 633.411 551.687 631.766 553.332 629.737 553.332 L 598.874 553.332 C 596.845 553.332 595.2 554.977 595.2 557.006 L 595.2 579.786 C 595.2 581.815 596.845 583.46 598.874 583.46 L 631.207 583.46 C 633.236 583.46 634.881 585.105 634.881 587.134 L 634.881 598.451 C 634.881 600.48 633.236 602.125 631.207 602.125 L 577.215 602.125 C 575.186 602.125 573.541 600.48 573.541 598.451 L 573.541 494.987 C 573.541 492.957 575.186 491.313 577.215 491.313 L 631.207 491.313 C 633.236 491.313 634.881 492.957 634.881 494.987 L 634.881 506.45 C 634.881 508.479 633.236 510.124 631.207 510.124 Z  M 679.356 598.451 L 679.356 492.488 C 679.356 490.459 681.001 488.814 683.031 488.814 L 692.528 488.814 C 693.584 488.815 694.587 489.27 695.284 490.063 L 755.356 558.623 C 756.363 559.783 757.986 560.193 759.424 559.653 C 760.861 559.112 761.811 557.734 761.804 556.198 L 761.804 494.987 C 761.804 492.957 763.449 491.313 765.479 491.313 L 779.734 491.313 C 781.763 491.313 783.408 492.957 783.408 494.987 L 783.408 600.618 C 783.408 602.648 781.763 604.293 779.734 604.293 L 770.09 604.293 C 769.028 604.297 768.016 603.841 767.316 603.043 L 707.39 534.484 C 706.38 533.338 704.767 532.937 703.338 533.476 C 701.909 534.015 700.963 535.382 700.96 536.909 L 700.96 598.396 C 700.96 600.425 699.315 602.07 697.286 602.07 L 683.031 602.07 C 681.023 602.07 679.387 600.458 679.356 598.451 Z  M 853.952 494.987 L 853.952 579.786 C 853.952 581.815 855.597 583.46 857.626 583.46 L 884.374 583.46 C 886.403 583.46 888.048 585.105 888.048 587.134 L 888.048 598.451 C 888.048 600.48 886.403 602.125 884.374 602.125 L 836.022 602.125 C 833.993 602.125 832.348 600.48 832.348 598.451 L 832.348 494.987 C 832.348 492.957 833.993 491.313 836.022 491.313 L 850.278 491.313 C 852.307 491.313 853.952 492.957 853.952 494.987 Z  M 995.627 578.757 L 955.212 578.757 C 953.746 578.752 952.418 579.619 951.831 580.962 L 943.62 599.92 C 943.033 601.264 941.705 602.13 940.239 602.125 L 925.286 602.125 C 924.054 602.125 922.905 601.506 922.225 600.479 C 921.545 599.451 921.425 598.152 921.905 597.018 L 966.84 491.202 C 967.415 489.845 968.746 488.962 970.22 488.961 L 981.5 488.961 C 982.99 488.961 984.332 489.861 984.899 491.239 L 1028.584 597.055 C 1029.049 598.185 1028.921 599.472 1028.243 600.489 C 1027.565 601.506 1026.426 602.119 1025.204 602.125 L 1009.956 602.125 C 1008.455 602.129 1007.102 601.22 1006.539 599.828 L 998.989 581.054 C 998.434 579.68 997.108 578.775 995.627 578.757 L 995.627 578.757 Z  M 989.436 556.253 L 979.167 530.02 C 978.607 528.629 977.258 527.719 975.759 527.719 C 974.26 527.719 972.912 528.629 972.351 530.02 L 961.696 556.253 C 961.239 557.384 961.373 558.669 962.054 559.682 C 962.735 560.694 963.875 561.303 965.095 561.305 L 986.019 561.305 C 987.243 561.309 988.388 560.703 989.074 559.689 C 989.759 558.676 989.895 557.387 989.436 556.253 L 989.436 556.253 Z  M 1057.757 493.829 L 1078.387 556.529 C 1078.891 558.022 1080.292 559.028 1081.869 559.028 C 1083.445 559.028 1084.846 558.022 1085.35 556.529 L 1107.928 492.543 C 1108.45 491.075 1109.841 490.096 1111.4 490.1 L 1118.031 490.1 C 1119.604 490.104 1121 491.108 1121.503 492.598 L 1143.016 556.529 C 1143.52 558.022 1144.92 559.028 1146.497 559.028 C 1148.073 559.028 1149.474 558.022 1149.978 556.529 L 1172.152 493.664 C 1172.667 492.188 1174.061 491.201 1175.624 491.202 L 1190.522 491.202 C 1191.724 491.201 1192.851 491.787 1193.539 492.772 C 1194.227 493.757 1194.391 495.016 1193.976 496.144 L 1154.957 601.794 C 1154.418 603.234 1153.04 604.187 1151.503 604.182 L 1141.564 604.182 C 1139.99 604.189 1138.586 603.192 1138.074 601.702 L 1117.646 541.722 C 1117.133 540.242 1115.74 539.249 1114.174 539.249 C 1112.608 539.249 1111.214 540.242 1110.701 541.722 L 1089.391 601.776 C 1088.869 603.244 1087.478 604.223 1085.919 604.219 L 1075.981 604.219 C 1074.424 604.213 1073.041 603.227 1072.527 601.757 L 1035.694 496.236 C 1035.301 495.111 1035.477 493.866 1036.167 492.895 C 1036.857 491.924 1037.975 491.348 1039.166 491.349 L 1054.267 491.349 C 1055.841 491.343 1057.245 492.34 1057.757 493.829 L 1057.757 493.829 Z " fill="rgb(255,255,255)"/></g></g></g></g></g></g></svg>