<svg width="150" height="150" xmlns="http://www.w3.org/2000/svg">
  <path d="M51.13 91.72a3.46 3.46 0 0 1-3.06-1.84 31.1 31.1 0 0 1 42-42 3.45 3.45 0 1 1-3.24 6.1 24.19 24.19 0 0 0-32.69 32.69 3.47 3.47 0 0 1-3.05 5.08l.04-.03z"/>
  <path d="M36.75 101.14a4.85 4.85 0 0 1-4.28-2.58 49.07 49.07 0 0 1 66.32-66.31 4.83 4.83 0 1 1-4.52 8.54A39.4 39.4 0 0 0 41 94a4.85 4.85 0 0 1-4.27 7.1l.02.04zM75.9 124.73a49.12 49.12 0 0 1-23-5.76 4.83 4.83 0 0 1 4.53-8.54 39.4 39.4 0 0 0 53.25-53.25 4.83 4.83 0 0 1 8.54-4.52 49.14 49.14 0 0 1-43.3 72.07h-.02z"/>
  <path d="M76.3 139.51a64.81 64.81 0 0 1-57.1-95.05 3.45 3.45 0 0 1 6.1 3.23 57.8 57.8 0 0 0 78.12 78.12 3.46 3.46 0 1 1 3.23 6.11 64.76 64.76 0 0 1-30.35 7.59z"/>
</svg>
