<svg width="50" height="50" xmlns="http://www.w3.org/2000/svg"><g fill-rule="nonzero" fill="none"><path d="M11.144 33.016c-.763 0-1.501-.414-1.887-1.136-4.46-8.46-2.924-18.684 3.817-25.457 6.75-6.772 16.938-8.313 25.368-3.83a2.144 2.144 0 0 1 .884 2.892 2.13 2.13 0 0 1-2.882.887c-6.767-3.597-14.948-2.358-20.369 3.08-5.42 5.44-6.646 13.65-3.07 20.44a2.149 2.149 0 0 1-.883 2.891c-.3.146-.644.233-.978.233z" fill="#37C3DD"/><path d="M28.374 43.429c-3.44 0-6.913-.835-10.129-2.54a2.144 2.144 0 0 1-.883-2.89 2.122 2.122 0 0 1 2.873-.887c6.767 3.597 14.948 2.358 20.369-3.081 5.42-5.439 6.655-13.649 3.07-20.439a2.149 2.149 0 0 1 .883-2.891 2.134 2.134 0 0 1 2.882.886c4.46 8.46 2.924 18.683-3.817 25.456-4.185 4.2-9.674 6.386-15.248 6.386z" fill="#076AD2"/><path d="M17.473 28.85a1.518 1.518 0 0 1-1.346-.809c-2.83-5.361-1.853-11.841 2.418-16.136 4.28-4.294 10.738-5.266 16.08-2.426a1.535 1.535 0 0 1 .636 2.065 1.524 1.524 0 0 1-2.059.637c-4.15-2.212-9.176-1.446-12.504 1.893a10.657 10.657 0 0 0-1.887 12.547 1.53 1.53 0 0 1-.635 2.066 1.56 1.56 0 0 1-.703.163z" fill="#FEDD3F"/><path d="M28.554 49.96c-7.35 0-14.597-2.883-20.094-8.407C-.443 32.62-2.467 19.134 3.425 7.98A1.524 1.524 0 1 1 6.118 9.41C.861 19.367 2.67 31.423 10.621 39.392c7.95 7.978 19.957 9.794 29.88 4.519a1.52 1.52 0 0 1 2.058.636 1.53 1.53 0 0 1-.635 2.066c-4.254 2.246-8.833 3.347-13.37 3.347z" fill="#FCBE79"/></g></svg>
