<svg viewBox="-317.234 -39.333 730.234 103.139" xmlns="http://www.w3.org/2000/svg" xmlns:bx="https://boxy-svg.com"><defs><style>.cls-112fa2{fill:none;stroke:#00cde6;stroke-miterlimit:10;stroke-width:2px}</style></defs><g id="Layer_1-2" data-name="Layer 1"><path class="cls-112fa2" d="M413 21c-20 0-39.68-20-59-20-20 0-39.71 20-59 20-20.07 0-39.74-20-59-20-20.11 0-39.78 20-59 20-20.15 0-39.81-20-59-20-20.21 0-39.88 20-59 20C38.73 21 19.07 1 0 1"/><path class="cls-112fa2" d="M413 31c-20 0-39.68-20-59-20-20 0-39.71 20-59 20-20.07 0-39.74-20-59-20-20.11 0-39.78 20-59 20-20.15 0-39.81-20-59-20-20.2 0-39.87 20-59 20-20.27 0-39.93-20-59-20"/><path class="cls-112fa2" d="M413 41c-20 0-39.68-20-59-20-20 0-39.71 20-59 20-20.07 0-39.74-20-59-20-20.11 0-39.78 20-59 20-20.15 0-39.81-20-59-20-20.2 0-39.87 20-59 20-20.27 0-39.93-20-59-20"/><path class="cls-112fa2" d="M413 51c-20 0-39.68-20-59-20-20 0-39.71 20-59 20-20.07 0-39.74-20-59-20-20.11 0-39.78 20-59 20-20.15 0-39.81-20-59-20-20.2 0-39.87 20-59 20-20.27 0-39.93-20-59-20"/><path class="cls-112fa2" d="M413 61c-20 0-39.68-20-59-20-20 0-39.71 20-59 20-20.07 0-39.74-20-59-20-20.11 0-39.78 20-59 20-20.15 0-39.81-20-59-20-20.2 0-39.87 20-59 20-20.27 0-39.93-20-59-20"/></g><path d="M226.053-26.821l11.934 74.905L155.053-.132l71-26.69z" bx:shape="triangle 117.964 119.416 95.931 58.759 0.5 0 1@5ea4fab8" stroke="#9d9d9d" fill="none" stroke-width="4"/><path class="st4" d="M-214.409-29.85l7.529 16.218 16.217-7.53.035.068.068-.034 7.53 16.218 16.217-7.529 2.045 4.428-20.613 9.574v-.034h-.034l-7.564-16.252-16.252 7.564v-.034h-.034l-9.574-20.613 4.43-2.044m1.192-3.339l-2.283 1.056-4.429 2.045-2.283 1.055 1.056 2.284 9.574 20.612 1.056 2.283h.034v.034l2.249-1.056 13.969-6.508 6.508 13.969 1.056 2.25h.034l.034.034 2.249-1.057 20.613-9.574 2.283-1.056-1.057-2.282-2.044-4.43-1.056-2.282-2.283 1.055-13.935 6.474-6.473-13.935-1.056-2.283-.069.034-.034-.068-2.283 1.056-13.935 6.474-6.473-13.935-1.022-2.249zM56.275-8.208c1.429 0 2.795.466 3.914 1.336a6.491 6.491 0 0 1 1.242 9.101c-1.242 1.615-3.137 2.578-5.187 2.578a6.345 6.345 0 0 1-3.914-1.336 6.49 6.49 0 0 1-1.242-9.101c1.273-1.646 3.137-2.578 5.187-2.578m0-2.299c-2.64 0-5.281 1.181-6.989 3.448-2.951 3.852-2.174 9.381 1.677 12.301a8.709 8.709 0 0 0 5.312 1.801c2.64 0 5.249-1.18 6.989-3.448 2.951-3.851 2.174-9.38-1.678-12.3a8.707 8.707 0 0 0-5.311-1.802z" fill="#fcbe79"/><path class="st3" d="M-301.091-10.391l38.951 27.055-40.722 24.912 1.771-51.967m-2.144-4.255l-2.05 60.384 47.307-28.919-45.257-31.465z" fill="#fedd3f"/><path class="st3" d="M-96.009 15.243l8.331 27.118-27.118 8.331-8.331-27.118 27.118-8.331m-17.737 33.466l1.634-.514 20.817-6.394 1.633-.514-.513-1.633-6.394-20.817-.514-1.634-1.633.514-20.817 6.394-1.634.514.513 1.633 6.395 20.817.513 1.634m18.857-35.613l-30.409 9.335 9.335 30.408 30.409-9.334-9.335-30.409zm-17.737 33.466l-6.394-20.817 20.817-6.395 6.394 20.817-20.817 6.395z" fill="#9d9d9d"/><path class="st4" d="M374.969-26.376l8.814 1.329-1.05 6.961 6.961 1.049-1.329 8.814-1.889-.28 1.049-6.96-6.96-1.049v-.035h-.035l1.049-6.961-6.96-1.049.35-1.819m-2.134-2.903l-.385 2.554-.28 1.888-.384 2.554 2.553.384 4.407.665-.664 4.407-.385 2.518h.035v.035l2.553.385 4.407.665-.664 4.407-.385 2.553 2.553.385 1.889.279 2.553.385.385-2.553 1.329-8.814.385-2.553-.875-.14-1.679-.245-4.407-.665.665-4.407.385-2.553-.875-.14-1.679-.245-8.814-1.329-2.623-.42z" fill="#fcbe79"/><path class="st1" d="M-47.883-27.413c1.68 0 3.31.395 4.841 1.136 2.668 1.284 4.644 3.557 5.632 6.373.939 2.815.79 5.829-.543 8.447-1.878 3.853-5.681 6.225-9.979 6.225-1.68 0-3.31-.396-4.842-1.137-5.483-2.667-7.756-9.336-5.088-14.82 1.877-3.853 5.681-6.224 9.979-6.224m0-3.607c-5.434 0-10.671 3.014-13.239 8.25-3.557 7.312-.544 16.105 6.768 19.662 2.074 1.037 4.297 1.482 6.422 1.482 5.434 0 10.67-3.014 13.239-8.25 3.557-7.311.543-16.105-6.768-19.662-2.075-1.037-4.248-1.482-6.422-1.482z" fill="#37c3dd"/></svg>